<?xml version="1.0" encoding="UTF-8" standalone="no"?>
<svg
   version="1.0"
   width="375.000000pt"
   height="69.000000pt"
   viewBox="0 0 375.000000 69.000000"
   preserveAspectRatio="xMidYMid meet"
   id="svg11"
   sodipodi:docname="logo-white.svg"
   inkscape:version="1.3.2 (091e20e, 2023-11-25, custom)"
   xmlns:inkscape="http://www.inkscape.org/namespaces/inkscape"
   xmlns:sodipodi="http://sodipodi.sourceforge.net/DTD/sodipodi-0.dtd"
   xmlns="http://www.w3.org/2000/svg"
   xmlns:svg="http://www.w3.org/2000/svg">
  <defs
     id="defs11" />
  <sodipodi:namedview
     id="namedview11"
     pagecolor="#505050"
     bordercolor="#eeeeee"
     borderopacity="1"
     inkscape:showpageshadow="0"
     inkscape:pageopacity="0"
     inkscape:pagecheckerboard="0"
     inkscape:deskcolor="#505050"
     inkscape:document-units="pt"
     inkscape:zoom="1.614"
     inkscape:cx="250"
     inkscape:cy="45.848823"
     inkscape:window-width="1366"
     inkscape:window-height="697"
     inkscape:window-x="-8"
     inkscape:window-y="-8"
     inkscape:window-maximized="1"
     inkscape:current-layer="svg11" />
  <g
     transform="translate(0.000000,69.000000) scale(0.100000,-0.100000)"
     fill="#000000"
     stroke="none"
     id="g11">
    <path
       d="M464 641 c-47 -21 -101 -74 -128 -125 l-19 -37 42 -102 c23 -56 51 -123 62 -149 l19 -48 -46 0 c-41 0 -46 3 -55 30 -11 30 -11 30 -88 30 l-77 0 -17 -38 c-22 -50 -21 -64 4 -96 l20 -26 780 0 c639 0 786 2 813 14 47 19 102 71 134 125 l27 46 3 -43 c3 -42 3 -42 42 -42 l39 0 3 63 3 62 78 3 78 3 -3 32 -3 32 -77 3 c-43 2 -78 7 -78 12 0 5 5 20 11 34 11 23 18 25 83 28 l71 3 3 33 3 32 -51 0 c-46 0 -51 2 -45 18 19 44 17 71 -8 96 l-26 26 -778 0 c-736 0 -780 -1 -819 -19z m431 -217 c25 -16 42 -53 47 -99 l3 -30 -95 -5 -95 -5 23 -22 c25 -26 49 -29 87 -11 22 10 29 9 47 -9 l21 -22 -34 -20 c-42 -26 -119 -28 -159 -5 -89 53 -76 207 20 241 41 15 102 9 135 -13z m313 -9 c20 -24 22 -37 22 -131 l0 -104 -40 0 -40 0 0 76 c0 90 -10 114 -48 114 -44 0 -52 -16 -52 -107 l0 -83 -45 0 -45 0 0 130 0 130 45 0 c35 0 45 -4 45 -17 0 -14 2 -15 18 -1 41 36 105 33 140 -7z m525 21 c40 -16 64 -51 73 -105 l7 -41 -92 0 c-75 0 -91 -3 -91 -15 0 -27 46 -40 87 -26 32 12 37 11 55 -6 18 -19 18 -20 -3 -39 -16 -15 -36 -19 -90 -19 -64 0 -71 2 -100 31 -55 56 -50 160 10 203 45 32 95 38 144 17z m-1208 -81 c14 -47 28 -85 30 -85 2 0 16 38 30 85 l26 85 41 0 c28 0 39 -4 36 -12 -3 -7 -24 -66 -48 -130 l-43 -118 -43 0 c-42 0 -43 0 -62 53 -11 28 -32 83 -46 121 -14 37 -26 72 -26 77 0 5 18 9 39 9 l40 0 26 -85z m815 6 c0 -102 25 -134 75 -97 16 12 20 29 23 95 l4 81 39 0 39 0 0 -130 0 -130 -40 0 c-29 0 -40 4 -40 15 0 19 -9 19 -34 0 -32 -24 -93 -19 -121 10 -23 23 -25 31 -25 130 l0 105 40 0 40 0 0 -79z"
       id="path1" />
    <path
       d="M776 371 c-25 -28 -12 -41 40 -41 37 0 44 3 44 20 0 19 -27 40 -53 40 -8 0 -22 -9 -31 -19z"
       id="path2" />
    <path
       d="M1640 370 c-28 -28 -17 -40 35 -40 51 0 60 9 39 38 -19 28 -48 28 -74 2z"
       id="path3" />
    <path
       d="M3012 554 c-40 -28 -22 -74 29 -74 41 0 56 60 20 80 -25 13 -22 13 -49 -6z"
       id="path4" />
    <path
       d="M2697 544 c-4 -4 -7 -88 -7 -186 l0 -178 45 0 45 0 0 79 c0 87 12 111 55 111 34 0 45 -27 45 -114 l0 -76 40 0 40 0 0 106 c0 103 -1 106 -29 135 -33 33 -70 37 -115 14 -15 -8 -30 -15 -32 -15 -2 0 -4 28 -6 63 l-3 62 -35 3 c-20 2 -39 0 -43 -4z"
       id="path5" />
    <path
       d="M2250 439 c-46 -14 -54 -23 -42 -46 9 -14 23 -18 74 -18 52 0 63 -3 66 -17 3 -15 -4 -18 -47 -18 -27 0 -61 -5 -75 -11 -50 -23 -57 -103 -13 -134 25 -17 89 -20 118 -5 13 7 19 7 19 0 0 -5 21 -10 46 -10 l46 0 -4 105 c-3 98 -5 106 -30 131 -30 31 -99 40 -158 23z m100 -167 c0 -25 -45 -45 -71 -32 -19 11 -25 31 -12 43 3 4 24 7 45 7 30 0 38 -4 38 -18z"
       id="path6" />
    <path
       d="M2504 436 c-75 -33 -53 -132 35 -153 30 -7 51 -21 51 -35 0 -10 -68 -6 -107 7 -16 5 -23 2 -28 -15 -13 -40 16 -55 101 -55 68 0 78 3 95 24 22 27 25 69 7 94 -7 9 -35 26 -63 36 -82 31 -68 69 14 40 28 -10 34 -9 46 7 20 26 14 37 -26 51 -45 16 -87 15 -125 -1z"
       id="path7" />
    <path
       d="M2997 444 c-4 -4 -7 -65 -7 -136 l0 -128 45 0 46 0 -3 133 -3 132 -35 3 c-20 2 -39 0 -43 -4z"
       id="path8" />
    <path
       d="M3195 443 c-60 -16 -95 -67 -95 -138 0 -37 6 -52 34 -82 30 -33 39 -37 94 -41 101 -7 155 42 154 140 -1 88 -90 145 -187 121z m89 -85 c31 -44 15 -99 -31 -113 -36 -10 -77 37 -69 78 11 57 71 77 100 35z"
       id="path9" />
    <path
       d="M3407 443 c-4 -3 -7 -64 -7 -135 l0 -128 45 0 45 0 0 76 c0 91 10 114 50 114 40 0 50 -23 50 -114 l0 -76 40 0 40 0 0 106 c0 103 -1 106 -29 135 -36 35 -86 39 -124 9 -25 -20 -25 -20 -30 0 -4 15 -14 20 -39 20 -19 0 -38 -3 -41 -7z"
       id="path10" />
    <path
       d="M242 356 c-13 -21 -21 -41 -18 -43 2 -2 20 -3 39 -1 l36 3 -17 39 -18 40 -22 -38z"
       id="path11" />
  </g>
  <path
     style="fill:#000000;stroke-width:0.619579"
     d="M 21.979323,77.808315 C 18.699489,73.464207 18.608186,71.487621 21.383099,64.900867 l 2.022908,-4.801734 8.123514,0.0733 c 10.94374,0.09875 11.55562,0.261934 13.108956,3.495955 2.104302,4.38113 2.458612,4.557196 8.763815,4.355046 L 59.003408,67.843866 50.810701,48.017348 42.617994,28.19083 43.855933,25.712515 C 47.725601,17.965559 54.646383,10.683129 61.209524,7.4521055 64.90146,5.6345717 65.745247,5.4849712 75.319074,4.9505327 80.919603,4.637895 128.0321,4.3719644 180.0135,4.3595757 l 94.51164,-0.022525 2.61516,2.6646554 c 3.4158,3.4804449 4.02398,5.6570809 2.84519,10.1827689 -0.50421,1.935777 -1.04215,3.645005 -1.19543,3.798285 -0.15328,0.15328 0.0318,0.652857 0.41138,1.110171 0.48751,0.587418 2.39549,0.83148 6.5002,0.83148 h 5.81013 l -0.009,3.252789 c -0.005,1.789033 -0.22553,3.592798 -0.48958,4.008367 -0.30589,0.481428 -3.05632,0.897187 -7.58035,1.145859 -10.23302,0.562477 -11.33993,0.930324 -12.921,4.293902 -0.71743,1.526275 -1.30442,3.299225 -1.30442,3.939888 0,1.460116 1.92645,1.823634 12.4876,2.35639 l 7.84076,0.395525 0.36866,1.843293 c 0.20276,1.013811 0.36865,2.743367 0.36865,3.843457 v 2.000164 l -4.74032,0.400703 c -2.60717,0.220388 -7.16871,0.400704 -10.13674,0.400704 h -5.39643 l -0.39071,3.252788 c -0.21488,1.789034 -0.39312,5.552974 -0.39609,8.364313 l -0.005,5.111524 h -4.66218 c -4.43444,0 -4.69169,-0.07763 -5.26641,-1.589281 -0.33234,-0.874105 -0.60852,-3.034885 -0.61373,-4.801735 -0.0153,-5.188922 -0.6859,-5.178267 -3.7278,0.05923 -3.17505,5.466745 -11.20397,13.96423 -15.58978,16.499583 -2.04903,1.184511 -4.42863,1.868166 -8.05452,2.314065 -3.20439,0.39407 -43.17006,0.754566 -105.91396,0.955371 L 24.610894,81.293804 Z M 86.056871,51.383887 C 90.809963,38.395233 92.021797,34.462704 91.448247,33.888348 91.003786,33.443266 88.825861,33.14746 85.993327,33.14746 h -4.715068 l -1.093309,3.407683 c -0.601321,1.874225 -2.140505,6.683705 -3.42041,10.687732 -1.279904,4.004027 -2.546023,7.280049 -2.813598,7.280049 -0.267575,0 -1.769593,-4.112453 -3.337819,-9.138785 -1.568225,-5.026332 -3.069452,-9.835812 -3.336059,-10.687733 -0.467805,-1.494834 -0.662429,-1.54661 -5.571066,-1.482078 -2.79748,0.03678 -5.34074,0.321282 -5.65169,0.632231 -0.91772,0.91772 10.020738,30.771102 12.127819,33.099401 0.923183,1.020106 1.920123,1.206518 6.418237,1.200137 l 5.325287,-0.0076 z m 31.396479,15.387631 c 1.21645,-0.516778 3.40905,-1.695447 4.87247,-2.619259 l 2.66075,-1.679657 -2.08436,-2.176129 c -3.03222,-3.165712 -4.3204,-3.494757 -8.00143,-2.043832 -4.51543,1.779817 -6.82245,1.596904 -9.95049,-0.788924 -1.45361,-1.108711 -2.59454,-2.293655 -2.5354,-2.63321 0.063,-0.361794 4.98458,-0.843718 11.88846,-1.16413 l 11.78091,-0.546759 -0.01,-2.241345 c -0.0153,-3.537457 -1.50865,-8.986567 -3.30107,-12.045093 -1.25979,-2.149671 -2.47093,-3.21014 -5.17998,-4.535557 -3.06197,-1.498079 -4.28668,-1.732523 -9.13961,-1.749577 -4.64743,-0.01633 -6.10587,0.227492 -8.545203,1.428592 -5.939275,2.924432 -9.419089,9.210277 -9.316363,16.828814 0.110806,8.217768 3.814269,13.97377 10.637556,16.533135 2.90488,1.089604 13.16826,0.730855 16.22344,-0.567069 z m 22.98723,-9.305595 c 0.14694,-6.869595 0.49916,-11.168024 0.98592,-12.032165 1.08057,-1.918337 4.57273,-2.954216 7.12245,-2.112732 3.4672,1.144278 3.82381,2.340091 4.1721,13.990003 l 0.31489,10.532837 5.80752,0.179158 5.80753,0.179157 -0.28212,-13.190311 c -0.30743,-14.374358 -0.72372,-16.390019 -4.01498,-19.440255 -4.86363,-4.507458 -12.39393,-4.462407 -18.62527,0.111427 -1.32654,0.973693 -1.39405,0.960989 -1.39405,-0.262363 0,-1.633357 -3.10895,-2.574725 -8.5192,-2.579553 l -3.87237,-0.0035 v 17.657993 17.657993 h 6.13448 6.13448 z m 47.52158,8.574628 c 2.71236,-1.879665 2.93954,-1.857383 4.06096,0.39829 0.62865,1.264511 1.20808,1.423024 5.79371,1.584976 l 5.09519,0.17995 V 50.52072 32.83767 h -5.48223 -5.48223 l -0.41845,8.85621 c -0.49909,10.562598 -1.04698,12.849371 -3.59163,14.990548 -2.41926,2.035673 -5.16483,1.911053 -6.81456,-0.309309 -1.36568,-1.838048 -2.36281,-9.330488 -2.36977,-17.806346 l -0.005,-5.731103 h -5.64343 -5.64344 l 0.22213,13.830907 c 0.22129,13.779734 0.22823,13.840149 1.87532,16.329034 2.46978,3.732042 5.96088,5.268393 11.42165,5.026404 3.65571,-0.162001 4.83767,-0.497801 6.98148,-1.983464 z m 44.64709,0.886153 c 2.49604,-0.715855 5.61875,-3.511184 5.61875,-5.029677 0,-0.587489 -0.8925,-1.819161 -1.98335,-2.73705 -2.11347,-1.778369 -2.36161,-1.786491 -9.45313,-0.309462 -3.07661,0.6408 -6.38225,0.08433 -8.23514,-1.386307 -1.08602,-0.861972 -0.96509,-2.735562 0.20557,-3.184785 0.53902,-0.206842 6.00749,-0.376077 12.15213,-0.376077 h 11.1721 l -0.41216,-2.942999 c -0.68261,-4.874291 -2.05165,-8.972961 -4.04501,-12.110147 -2.71884,-4.278953 -7.80003,-6.630941 -14.32683,-6.631619 -4.01035,-4.17e-4 -5.26338,0.27965 -8.51028,1.902146 -6.86915,3.432554 -9.7117,8.68902 -9.29657,17.191285 0.17059,3.493743 0.63921,5.563585 1.7617,7.781401 1.66396,3.287596 6.09407,7.590317 8.24643,8.009301 2.7577,0.536815 15.06174,0.41021 17.10579,-0.17601 z"
     id="path12"
     transform="scale(0.75)" />
  <path
     style="fill:#f9f9f9;stroke-width:0.619579"
     d="M 23.490464,79.830477 C 18.71595,74.460979 18.374536,72.04223 21.383099,64.900867 l 2.022908,-4.801734 8.123514,0.0733 c 11.002253,0.09928 11.549577,0.248807 13.154766,3.593783 1.893666,3.946115 2.777334,4.387435 8.785067,4.387435 5.175674,0 5.212378,-0.01111 4.846999,-1.466896 -0.202493,-0.806792 -3.827474,-9.798427 -8.055514,-19.98141 L 42.573494,28.19083 44.830737,23.868498 C 47.952863,17.890024 55.634367,10.146813 61.068765,7.500026 64.911818,5.6282929 65.698243,5.4875951 75.319074,4.9505327 80.919603,4.637895 128.0321,4.3719644 180.0135,4.3595757 l 94.51164,-0.022525 2.61516,2.6646554 c 3.4158,3.4804449 4.02398,5.6570809 2.84519,10.1827689 -0.50421,1.935777 -1.04215,3.645005 -1.19543,3.798285 -0.15328,0.15328 0.0318,0.652857 0.41138,1.110171 0.48751,0.587418 2.39549,0.83148 6.5002,0.83148 h 5.81013 l -0.009,3.252789 c -0.005,1.789033 -0.2193,3.582711 -0.47572,3.98595 -0.28969,0.455532 -3.70073,0.95443 -9.00786,1.317483 -7.42888,0.5082 -8.72707,0.758529 -9.96505,1.921551 -1.78733,1.679109 -3.31481,6.0306 -2.42813,6.917279 0.73936,0.739363 9.89578,1.785133 15.7679,1.80088 4.09853,0.01099 4.10529,0.01392 4.49195,1.947191 0.21298,1.064901 0.38723,2.836257 0.38723,3.936347 v 2.000164 l -4.74032,0.400703 c -2.60717,0.220388 -7.16871,0.400704 -10.13674,0.400704 h -5.39643 l -0.39071,3.252788 c -0.21488,1.789034 -0.39312,5.552974 -0.39609,8.364313 l -0.005,5.111524 h -4.62504 c -5.49391,0 -5.9078,-0.428649 -5.9078,-6.11849 0,-2.046901 -0.23739,-3.868352 -0.52753,-4.047671 -0.29014,-0.179317 -2.168,2.202218 -4.17301,5.292301 -3.88059,5.980675 -10.1456,12.392522 -14.73898,15.084417 -1.95742,1.147126 -4.33895,1.828204 -7.94206,2.271302 -3.20574,0.394231 -43.11116,0.752682 -105.82784,0.950594 L 24.783147,81.28425 Z M 85.665087,52.346221 c 3.156691,-8.691484 5.80539,-16.402298 5.885997,-17.135143 0.183154,-1.665102 -2.529002,-2.520089 -7.134696,-2.249161 -3.084982,0.181472 -3.171307,0.239912 -3.935062,2.663857 -4.808656,15.26145 -6.059356,18.89715 -6.500716,18.89715 -0.448132,0 -5.325928,-14.57584 -6.481232,-19.367227 -0.519463,-2.154366 -2.145908,-2.593793 -7.484343,-2.022095 l -4.083366,0.437291 0.36257,2.266598 c 0.533853,3.337375 10.59989,29.685246 11.882531,31.102546 0.9287,1.026202 1.920674,1.213253 6.423594,1.211252 l 5.325287,-0.0024 z m 31.435283,14.465743 c 1.36307,-0.496636 3.69368,-1.675274 5.17912,-2.61919 l 2.7008,-1.716209 -1.77144,-1.863609 c -3.14962,-3.313511 -4.42865,-3.671954 -8.27244,-2.318313 -4.84215,1.70522 -6.88373,1.535344 -9.98612,-0.830926 -1.45361,-1.108711 -2.66023,-2.293655 -2.68137,-2.63321 -0.023,-0.369544 4.68713,-0.866086 11.73356,-1.236951 l 11.77199,-0.619578 -0.10083,-3.717472 c -0.13912,-5.128951 -2.17296,-10.233792 -5.14823,-12.921766 -3.98172,-3.597242 -10.9135,-4.886489 -17.38806,-3.234017 -5.139865,1.311827 -7.837121,3.511797 -10.38797,8.47279 -1.728866,3.36236 -2.052596,4.663611 -2.087676,8.391421 -0.08089,8.596866 3.875669,15.125458 10.435036,17.218517 3.63753,1.160719 12.35366,0.958389 16.00363,-0.371487 z m 23.34021,-9.346041 c 0.14549,-6.801441 0.50096,-11.170943 0.97759,-12.016614 1.69156,-3.001258 8.02006,-3.270816 9.88724,-0.42114 0.92742,1.415426 1.92451,11.421282 2.01119,20.182488 l 0.0291,2.942999 h 5.57621 5.57621 l -0.0203,-10.068154 c -0.0356,-17.695425 -1.09122,-21.327029 -7.07164,-24.329039 -4.95074,-2.485136 -10.64938,-1.897169 -15.0331,1.551064 l -1.6065,1.263668 -0.68566,-1.375314 c -0.85209,-1.709107 -2.61357,-2.21756 -7.95582,-2.296451 l -4.1821,-0.06176 v 17.657993 17.657993 h 6.13448 6.13448 z m 47.41089,8.590744 c 2.57212,-1.720867 3.90813,-1.740273 3.90813,-0.05677 0,1.459925 2.18246,2.153761 6.77464,2.153761 h 4.37778 V 50.495663 32.83767 h -5.48223 -5.48223 l -0.41845,8.85621 c -0.49909,10.562598 -1.04698,12.849371 -3.59163,14.990548 -2.41684,2.03364 -5.16668,1.911293 -6.80496,-0.302768 -1.41333,-1.910044 -2.33917,-8.641032 -2.36494,-17.193308 l -0.0191,-6.350682 h -5.63688 -5.63689 l 0.22863,13.475837 c 0.19612,11.560198 0.39176,13.807853 1.37622,15.811458 2.10728,4.288814 5.83045,6.074917 12.14724,5.827352 3.21851,-0.12614 4.54887,-0.506821 6.6247,-1.89565 z m 44.36867,0.816133 c 1.29604,-0.3599 3.24772,-1.458377 4.33705,-2.441063 1.91159,-1.724443 1.94769,-1.846715 1.03602,-3.509119 -1.74879,-3.188855 -3.50708,-3.678762 -8.76183,-2.441288 -4.73053,1.114023 -7.09764,0.957436 -9.65542,-0.638715 -1.61133,-1.005529 -1.84471,-3.01418 -0.41401,-3.563192 0.53902,-0.206842 6.01146,-0.376077 12.16097,-0.376077 h 11.18093 l -0.39859,-2.492642 c -1.5511,-9.700026 -3.87426,-14.053677 -9.05346,-16.96639 -3.14476,-1.768569 -3.86182,-1.916433 -9.29368,-1.916433 -5.36639,0 -6.17893,0.162248 -9.20419,1.837905 -6.44647,3.570625 -9.1129,8.819035 -8.63904,17.004525 0.21571,3.726314 0.66129,5.458939 2.06908,8.045497 1.91947,3.526717 5.78403,7.266646 7.94675,7.690481 2.81251,0.551171 14.45006,0.388364 16.68942,-0.233489 z"
     id="path13"
     transform="scale(0.75)" />
  <path
     style="fill:#f9f9f9;stroke-width:0.619579"
     d="m 298.29095,66.946576 c -2.99475,-0.90873 -4.2992,-1.936929 -5.538,-4.365162 -1.63157,-3.198154 -1.57038,-6.621485 0.17745,-9.926684 1.94261,-3.673529 4.68319,-4.990688 11.12306,-5.345887 8.26936,-0.456108 9.14357,-0.679984 9.14357,-2.341599 0,-2.47329 -1.43873,-2.99418 -9.36646,-3.391121 -6.87475,-0.344218 -7.56705,-0.49112 -8.65642,-1.836832 -1.54888,-1.913354 -1.49472,-2.957066 0.20999,-4.046422 4.03053,-2.575627 13.54124,-3.63663 19.39212,-2.163361 3.62089,0.91175 8.09148,4.845877 8.9353,7.863066 0.35189,1.258248 0.82295,7.654824 1.04681,14.214613 l 0.40701,11.92689 h -4.91695 c -3.49119,0 -5.32471,-0.285607 -6.32317,-0.984957 -1.28525,-0.900222 -1.61799,-0.900222 -3.86787,0 -2.56797,1.027496 -8.9767,1.243975 -11.76644,0.397456 z m 12.12207,-7.200704 c 2.48076,-1.177197 3.95938,-4.116495 2.78354,-5.533297 -0.56526,-0.681097 -2.06872,-0.928808 -5.63732,-0.928808 -4.46643,0 -4.94738,0.123454 -5.85046,1.501736 -0.8903,1.358774 -0.8929,1.677851 -0.0273,3.351706 0.52616,1.017484 1.31104,1.992553 1.74417,2.166822 1.6217,0.652489 5.00581,0.382164 6.98739,-0.558159 z"
     id="path14"
     transform="scale(0.75)" />
  <path
     style="fill:#f9f9f9;stroke-width:0.619579"
     d="m 331.91391,66.327571 c -2.92001,-0.72478 -4.46657,-2.352048 -4.46657,-4.699655 0,-3.018794 1.2448,-3.716764 5.13309,-2.878171 7.99759,1.724848 12.83469,1.654287 12.83469,-0.187228 0,-1.499414 -2.59476,-3.419247 -5.93284,-4.389657 -6.8607,-1.994459 -11.41537,-6.716838 -11.41537,-11.835711 0,-2.150669 2.00959,-5.401213 4.46239,-7.217995 2.58659,-1.915879 8.57136,-2.925786 13.10572,-2.21154 4.35847,0.68654 9.30261,2.896542 9.5548,4.270941 0.0942,0.51326 -0.60706,1.865469 -1.5583,3.004907 l -1.72954,2.071707 -5.04496,-1.382592 c -5.48346,-1.502765 -8.25727,-1.32036 -8.25727,0.542998 0,1.737447 2.31233,3.484734 8.18736,6.186701 7.32564,3.369112 8.54127,4.663086 8.54127,9.091779 0,3.821708 -0.89271,6.019218 -3.39682,8.361707 -1.57717,1.475376 -2.04346,1.554384 -9.81723,1.66343 -4.48878,0.06297 -9.07897,-0.113264 -10.20042,-0.391621 z"
     id="path15"
     transform="scale(0.75)" />
  <path
     style="fill:#f9f9f9;stroke-width:0.619579"
     d="m 359.10013,46.623296 c 0.0299,-11.500929 0.23896,-22.304833 0.46468,-24.008674 l 0.41041,-3.097893 4.02726,-0.159777 c 2.21499,-0.08788 4.40048,0.08325 4.85664,0.380288 0.56656,0.368928 0.99648,2.971888 1.35672,8.214299 0.29004,4.22083 0.54414,7.743938 0.56467,7.82913 0.11455,0.475254 1.83323,-0.01674 4.62439,-1.323777 4.35907,-2.041261 6.65481,-2.429311 9.63094,-1.627922 3.39584,0.914404 7.74816,5.13309 8.63823,8.373013 0.38467,1.400198 0.68236,7.666749 0.68431,14.405204 l 0.003,11.92689 h -4.86767 -4.86767 l -0.32878,-9.448575 c -0.39156,-11.253119 -1.26844,-14.269389 -4.45395,-15.320703 -1.50216,-0.495759 -2.63261,-0.46388 -4.43659,0.125114 -3.89023,1.270149 -4.68041,3.624928 -5.06596,15.096909 l -0.32086,9.547255 h -5.48725 -5.48725 z"
     id="path16"
     transform="scale(0.75)" />
  <path
     style="fill:#f9f9f9;stroke-width:0.619579"
     d="m 398.92149,51.135927 c 0.23099,-9.018983 0.5735,-16.7982 0.76113,-17.287149 0.4886,-1.27327 2.47709,-1.638512 6.58373,-1.209284 l 3.58495,0.374702 v 6.008201 c 0,3.304511 0.1834,11.071484 0.40756,17.259941 l 0.40757,11.251739 h -6.08246 -6.08246 z"
     id="path17"
     transform="scale(0.75)" />
  <path
     style="fill:#f9f9f9;stroke-width:0.619579"
     d="m 403.20463,27.354597 c -2.47575,-0.722723 -3.88617,-2.424445 -3.88617,-4.688803 0,-1.704959 0.46045,-2.509022 2.3097,-4.033326 2.88903,-2.381388 4.71888,-2.405529 7.03164,-0.09277 2.43495,2.434949 2.43495,5.095314 0,7.530264 -1.8053,1.805301 -2.83828,2.048557 -5.45517,1.284632 z"
     id="path18"
     transform="scale(0.75)" />
  <path
     style="fill:#f9f9f9;stroke-width:0.619579"
     d="m 425.96035,66.957963 c -3.18609,-0.637081 -4.44622,-1.479775 -7.95703,-5.321167 -3.74179,-4.094105 -4.72654,-7.0251 -4.21706,-12.551465 0.94223,-10.220205 7.74932,-16.402555 18.06008,-16.402555 5.73057,0 9.82819,1.602672 13.67566,5.348851 5.23195,5.094212 6.42258,11.546774 3.63838,19.717967 -1.31516,3.859775 -5.33292,7.539647 -9.62292,8.813638 -3.33453,0.990251 -9.67673,1.17464 -13.57711,0.394731 z m 10.83415,-8.821594 c 7.68082,-6.041731 1.4326,-20.056292 -7.31275,-16.402255 -5.93362,2.479228 -7.02479,11.367587 -1.94324,15.829241 2.74818,2.412932 6.61276,2.652178 9.25599,0.573014 z"
     id="path19"
     transform="scale(0.75)" />
  <path
     style="fill:#f9f9f9;stroke-width:0.619579"
     d="m 453.95986,50.546258 c 0.10523,-9.343301 0.38665,-17.182688 0.6254,-17.420861 0.6708,-0.669198 5.80605,-1.108262 7.6244,-0.651886 1.08744,0.27293 1.93109,1.13691 2.54509,2.606402 l 0.91844,2.198139 1.67394,-1.121775 c 3.44394,-2.307925 7.21215,-3.938185 9.10279,-3.938185 3.15029,0 8.42522,3.051057 10.53509,6.093578 l 1.86257,2.685896 0.21652,13.268256 0.21653,13.268255 h -5.01826 -5.01826 l -0.0301,-4.491946 c -0.0626,-9.344632 -0.94288,-16.54126 -2.23505,-18.271975 -1.55219,-2.078989 -4.1635,-2.790703 -7.21974,-1.967743 -3.62686,0.976612 -4.30081,3.153137 -4.63642,14.9733 l -0.27707,9.758364 h -5.5386 -5.5386 z"
     id="path20"
     transform="scale(0.75)" />
  <path
     style="fill:#f9f9f9;stroke-width:0.619579"
     d="m 218.24659,47.038353 c -1.62225,-0.944876 -1.32476,-2.089157 1.09563,-4.214288 3.95103,-3.469051 6.86314,-3.050959 9.4849,1.36175 0.98514,1.658103 0.97689,1.788766 -0.16611,2.63321 -1.40645,1.039074 -8.74177,1.193556 -10.41442,0.219328 z"
     id="path21"
     transform="scale(0.75)" />
  <path
     style="fill:#f9f9f9;stroke-width:0.619579"
     d="m 104.39901,47.265663 c -2.20504,-0.816343 -2.50576,-1.488971 -1.4584,-3.262012 2.35831,-3.992302 6.33809,-4.569604 9.66782,-1.402403 1.83186,1.74245 2.14737,3.175789 0.96034,4.362816 -0.74596,0.745965 -7.38009,0.964165 -9.16976,0.301599 z"
     id="path22"
     transform="scale(0.75)" />
  <path
     style="fill:#f9f9f9;stroke-width:0.619579"
     d="m 30.329938,49.101611 c 0.227122,-0.596345 1.405671,-2.862293 2.618999,-5.03544 l 2.206052,-3.951178 2.01942,4.570756 c 2.342881,5.302876 2.287885,5.385579 -3.628553,5.456578 -3.209468,0.03851 -3.58114,-0.08176 -3.215918,-1.040716 z"
     id="path23"
     transform="scale(0.75)" />
</svg>
