<?xml version="1.0" encoding="UTF-8"?>
<svg version="1.1" xmlns="http://www.w3.org/2000/svg" width="512" height="374">
<path d="M0 0 C2.19902826 3.29854238 2.26409793 4.36420456 2.31884766 8.20581055 C2.33871735 9.26668381 2.35858704 10.32755707 2.37905884 11.420578 C2.39061005 12.56440445 2.40216125 13.7082309 2.4140625 14.88671875 C2.43342865 16.05886429 2.4527948 17.23100983 2.4727478 18.43867493 C2.53260197 22.1882089 2.57895283 25.93777348 2.625 29.6875 C2.66317436 32.22722705 2.70222576 34.76694107 2.7421875 37.30664062 C2.83830835 43.53764497 2.92333885 49.76872751 3 56 C5.64 57.32 8.28 58.64 11 60 C11.33 50.43 11.66 40.86 12 31 C16.90747117 30.9537031 21.81416287 30.91399668 26.72167969 30.89013672 C28.38576853 30.88017404 30.04984031 30.86659898 31.71386719 30.84912109 C60.62999984 30.55334838 60.62999984 30.55334838 69.71484375 38.5 C75.14714537 44.23778557 77.11085606 50.63424776 77.375 58.4375 C77.07113028 67.14032886 75.05137473 73.92956993 68.96875 80.30859375 C63.34534923 85.13980909 57.12884164 87.14028396 49.796875 87.09765625 C48.8171875 87.09443359 47.8375 87.09121094 46.828125 87.08789062 C45.81234375 87.07951172 44.7965625 87.07113281 43.75 87.0625 C42.203125 87.05573242 42.203125 87.05573242 40.625 87.04882812 C38.08330846 87.03706103 35.54164682 87.0191261 33 87 C33 93.93 33 100.86 33 108 C26.07 108 19.14 108 12 108 C11.67 93.15 11.34 78.3 11 63 C9.02 65.31 7.04 67.62 5 70 C4.01 70.495 4.01 70.495 3 71 C2.99120064 72.69009689 2.99120064 72.69009689 2.98222351 74.41433716 C2.9249869 85.03766474 2.85222017 95.66078781 2.76428509 106.28390694 C2.71957586 111.74524584 2.68032079 117.20651004 2.65356445 122.66796875 C2.62753723 127.93952557 2.58713855 133.21079502 2.53681374 138.48217392 C2.52014117 140.49234312 2.50862932 142.50256203 2.50238609 144.51279068 C2.49274939 147.33061021 2.4646949 150.14769393 2.43237305 152.96533203 C2.43452568 154.20935036 2.43452568 154.20935036 2.4367218 155.47850037 C2.35730194 160.38081075 1.68809205 163.74343256 -1 168 C-5.18567075 171.87174544 -8.27753897 173.11385449 -13.91113281 173.17700195 C-14.90937073 173.18983719 -15.90760864 173.20267242 -16.93609619 173.21589661 C-18.0142157 173.22328354 -19.09233521 173.23067047 -20.203125 173.23828125 C-21.8698526 173.25038887 -21.8698526 173.25038887 -23.57025146 173.26274109 C-25.92393434 173.27657839 -28.27763725 173.28730213 -30.63134766 173.29516602 C-34.22206903 173.31236621 -37.81186672 173.35625552 -41.40234375 173.40039062 C-43.6900974 173.41051884 -45.97785888 173.41903454 -48.265625 173.42578125 C-49.33564758 173.44328934 -50.40567017 173.46079742 -51.50811768 173.47883606 C-57.87432239 173.46041114 -61.9976027 173.10159332 -67 169 C-70.61100969 163.69447575 -71.57700856 158.8716994 -71.45410156 152.56445312 C-71.45468567 151.76349213 -71.45526978 150.96253113 -71.45587158 150.13729858 C-71.45310874 147.51815811 -71.42210403 144.90018897 -71.390625 142.28125 C-71.38315616 140.45422995 -71.37746627 138.62720185 -71.37347412 136.8001709 C-71.35826834 132.01275154 -71.31903064 127.22582465 -71.2746582 122.43859863 C-71.23359591 117.545071 -71.21543978 112.65146309 -71.1953125 107.7578125 C-71.15253106 98.17165972 -71.08434159 88.58587096 -71 79 C-72.4540625 78.814375 -72.4540625 78.814375 -73.9375 78.625 C-74.948125 78.41875 -75.95875 78.2125 -77 78 C-77.33 77.34 -77.66 76.68 -78 76 C-75.69 76 -73.38 76 -71 76 C-71.00666183 75.37439178 -71.01332367 74.74878357 -71.02018738 74.10421753 C-71.08664563 67.58287707 -71.13184426 61.0616331 -71.16479492 54.54003906 C-71.17986534 52.10738211 -71.20032523 49.67475226 -71.22631836 47.2421875 C-71.2627774 43.74211939 -71.2797442 40.2424111 -71.29296875 36.7421875 C-71.30845261 35.65759247 -71.32393646 34.57299744 -71.33988953 33.45553589 C-71.34152916 26.07040498 -70.47792418 21.87266613 -65.54638672 16.15551758 C-61.03976481 12.70040621 -55.6801603 13.38270154 -50.2578125 13.51171875 C-48.57254959 13.52233086 -48.57254959 13.52233086 -46.85324097 13.53315735 C-43.27647396 13.56107193 -39.70129124 13.62380933 -36.125 13.6875 C-33.69533516 13.71258647 -31.2656457 13.73539902 -28.8359375 13.75585938 C-22.89008747 13.81088908 -16.94515694 13.8944876 -11 14 C-11.04640625 13.16855469 -11.0928125 12.33710937 -11.140625 11.48046875 C-11.17671875 10.39378906 -11.2128125 9.30710937 -11.25 8.1875 C-11.29640625 7.10855469 -11.3428125 6.02960938 -11.390625 4.91796875 C-11 2 -11 2 -9.2109375 0.10546875 C-5.87053234 -1.56473383 -3.53481 -0.91643222 0 0 Z M-59.41308594 37.74072266 C-61.25163913 41.51682806 -61.46213517 43.96509263 -61.390625 48.1484375 C-61.38496521 48.80582916 -61.37930542 49.46322083 -61.37347412 50.14053345 C-61.35126275 52.21946191 -61.3011042 54.29660163 -61.25 56.375 C-61.22991489 57.79294368 -61.21166765 59.21091465 -61.1953125 60.62890625 C-61.15145067 64.08650877 -61.08253437 67.54307951 -61 71 C-59.86800647 70.0919838 -58.74467637 69.17316174 -57.625 68.25 C-56.68527344 67.48429687 -56.68527344 67.48429687 -55.7265625 66.703125 C-53.91687682 64.91800519 -52.99882545 63.32050356 -52 61 C-51.2575 61.763125 -50.515 62.52625 -49.75 63.3125 C-46.63155616 66.51543428 -46.63155616 66.51543428 -43 69 C-33.01757144 66.21420598 -26.94042838 54.35583708 -22 46 C-17 47.66666667 -12 49.33333333 -7 51 C-6.66448886 45.51998472 -7.35530043 41.83341646 -10 37 C-16.40110725 30.91894811 -23.21396814 31.78170317 -31.51367188 31.75976562 C-33.72825178 31.75009497 -35.94188917 31.71907734 -38.15625 31.6875 C-39.57811952 31.68096571 -40.99999565 31.67571691 -42.421875 31.671875 C-43.70674805 31.6625293 -44.99162109 31.65318359 -46.31542969 31.64355469 C-51.94285677 32.18795195 -55.63436726 33.44894849 -59.41308594 37.74072266 Z M33 48 C33 55.26 33 62.52 33 70 C37.0528125 70.0928125 37.0528125 70.0928125 41.1875 70.1875 C42.02949951 70.21481201 42.87149902 70.24212402 43.73901367 70.27026367 C48.33587755 70.32107888 51.2485859 69.95063148 55 67 C57.56632517 63.57823311 57.36435051 60.15359579 57 56 C55.63435486 52.46538905 54.37606532 51.24235321 51.1875 49.1875 C45.4769273 46.98732264 38.97977579 47.82914926 33 48 Z M-18.2890625 80.02734375 C-25.13497642 81.82169382 -31.65949883 82.16242564 -38.6875 82.125 C-39.56438477 82.12306641 -40.44126953 82.12113281 -41.34472656 82.11914062 C-47.93134808 82.07547242 -54.45215246 81.74528346 -61 81 C-62.20320678 91.86054072 -62.20320678 91.86054072 -58.1875 101.4375 C-54.00334481 105.39436775 -49.48149488 105.1723662 -44.0078125 105.203125 C-43.22485809 105.20882507 -42.44190369 105.21452515 -41.63522339 105.22039795 C-39.97932279 105.22983845 -38.32340349 105.23637816 -36.66748047 105.24023438 C-34.14126634 105.24993752 -31.61586692 105.28096782 -29.08984375 105.3125 C-27.47917149 105.31903075 -25.86849342 105.32428094 -24.2578125 105.328125 C-23.50557404 105.3404718 -22.75333557 105.3528186 -21.978302 105.36553955 C-17.46156362 105.34646619 -14.58579973 104.79536802 -11 102 C-6.98844762 96.41248062 -6.86044675 91.45955961 -6.9375 84.75 C-6.94201172 84.00492187 -6.94652344 83.25984375 -6.95117188 82.4921875 C-6.96290754 80.6614236 -6.9808415 78.83070127 -7 77 C-10.65005508 77 -14.81214319 78.99316413 -18.2890625 80.02734375 Z " fill="#38B54A" transform="translate(189,101)"/>
<path d="M0 0 C0.06954118 11.63087981 0.1228323 23.26171006 0.15543652 34.89275551 C0.17108569 40.29365004 0.19231052 45.69440223 0.22631836 51.09521484 C0.25893817 56.30827609 0.27685864 61.52120049 0.28463173 66.73435593 C0.2901705 68.72225473 0.30098638 70.71014613 0.31719017 72.6979866 C0.33899914 75.48453142 0.34196546 78.27051233 0.34057617 81.05712891 C0.351362 81.87712372 0.36214783 82.69711853 0.3732605 83.54196167 C0.34688891 88.43722393 -0.31199212 91.74906965 -3 96 C-7.18567075 99.87174544 -10.27753897 101.11385449 -15.91113281 101.17700195 C-16.90937073 101.18983719 -17.90760864 101.20267242 -18.93609619 101.21589661 C-20.0142157 101.22328354 -21.09233521 101.23067047 -22.203125 101.23828125 C-23.8698526 101.25038887 -23.8698526 101.25038887 -25.57025146 101.26274109 C-27.92393434 101.27657839 -30.27763725 101.28730213 -32.63134766 101.29516602 C-36.22206903 101.31236621 -39.81186672 101.35625552 -43.40234375 101.40039062 C-45.6900974 101.41051884 -47.97785888 101.41903454 -50.265625 101.42578125 C-51.33564758 101.44328934 -52.40567017 101.46079742 -53.50811768 101.47883606 C-59.87432239 101.46041114 -63.9976027 101.10159332 -69 97 C-72.61100969 91.69447575 -73.57700856 86.8716994 -73.45410156 80.56445312 C-73.45468567 79.76349213 -73.45526978 78.96253113 -73.45587158 78.13729858 C-73.45310874 75.51815811 -73.42210403 72.90018897 -73.390625 70.28125 C-73.38315616 68.45422995 -73.37746627 66.62720185 -73.37347412 64.8001709 C-73.35826834 60.01275154 -73.31903064 55.22582465 -73.2746582 50.43859863 C-73.23359591 45.545071 -73.21543978 40.65146309 -73.1953125 35.7578125 C-73.15253106 26.17165972 -73.08434159 16.58587096 -73 7 C-71.52031676 7.14049518 -70.04125484 7.28754826 -68.5625 7.4375 C-67.32693359 7.55931641 -67.32693359 7.55931641 -66.06640625 7.68359375 C-64 8 -64 8 -63 9 C-62.86383772 12.27924149 -62.75206667 15.55186321 -62.74609375 18.83398438 C-62.54736843 24.49765612 -61.09298901 27.05837892 -57 31 C-53.30032434 32.23322522 -49.86140787 32.16229845 -46.0078125 32.16796875 C-45.22485809 32.17129715 -44.44190369 32.17462555 -43.63522339 32.17805481 C-41.97931505 32.18311519 -40.32339653 32.18546341 -38.66748047 32.18530273 C-36.14142934 32.1874858 -33.61581743 32.20564117 -31.08984375 32.22460938 C-29.47916816 32.22754421 -27.86849049 32.2295284 -26.2578125 32.23046875 C-25.1294548 32.24124702 -25.1294548 32.24124702 -23.978302 32.25224304 C-19.90739266 32.23461968 -16.56640044 32.05856261 -13 30 C-10.79695035 25.51522036 -9.95758008 21.72598979 -9.84375 16.765625 C-9.8240918 16.0135376 -9.80443359 15.2614502 -9.78417969 14.48657227 C-9.76165645 12.97156254 -9.77195287 11.45565803 -9.81738281 9.94116211 C-9.796875 7.79296875 -9.796875 7.79296875 -9 4 C-6.43370683 1.66278192 -3.56009759 0 0 0 Z " fill="#D7E2D2" transform="translate(191,173)"/>
<path d="M0 0 C7.26 0 14.52 0 22 0 C27.98741801 11.28064262 33.85374121 22.59936491 39.50708008 34.05126953 C40.17066528 35.3910083 40.17066528 35.3910083 40.84765625 36.7578125 C41.23961182 37.5533252 41.63156738 38.34883789 42.03540039 39.16845703 C42.86587888 40.96459293 42.86587888 40.96459293 44 42 C50.93 28.14 57.86 14.28 65 0 C72.26 0 79.52 0 87 0 C88.67335996 1.67335996 88.11962895 3.71387909 88.12442017 5.94747925 C88.11902725 7.00807053 88.11902725 7.00807053 88.11352539 8.09008789 C88.11367142 8.83150528 88.11381744 9.57292267 88.1139679 10.33680725 C88.11326865 12.79878621 88.10547574 15.26069043 88.09765625 17.72265625 C88.09579211 19.42516539 88.09436819 21.12767507 88.09336853 22.83018494 C88.08954302 27.31993073 88.07971247 31.80964438 88.06866455 36.29937744 C88.05845113 40.87731491 88.05387106 45.45525756 88.04882812 50.03320312 C88.03809022 59.02215184 88.02049316 68.01106822 88 77 C81.73 77 75.46 77 69 77 C68.67 62.81 68.34 48.62 68 34 C59.38788172 51.94750755 59.38788172 51.94750755 51 70 C46.38 70 41.76 70 37 70 C31.13873119 58.42119921 25.52604564 46.74284698 20 35 C19.67 48.86 19.34 62.72 19 77 C12.73 77 6.46 77 0 77 C0 51.59 0 26.18 0 0 Z " fill="#38B54A" transform="translate(20,132)"/>
<path d="M0 0 C20.13 0 40.26 0 61 0 C61 5.61 61 11.22 61 17 C47.8 17 34.6 17 21 17 C21 21.29 21 25.58 21 30 C32.88 30 44.76 30 57 30 C57 35.61 57 41.22 57 47 C45.12 47 33.24 47 21 47 C21 51.29 21 55.58 21 60 C34.53 60 48.06 60 62 60 C62 65.61 62 71.22 62 77 C41.54 77 21.08 77 0 77 C0 51.59 0 26.18 0 0 Z " fill="#38B54A" transform="translate(272,132)"/>
<path d="M0 0 C6.93 0 13.86 0 21 0 C25.5 9 25.5 9 26.94775391 12.47460938 C27.2758606 13.25819321 27.60396729 14.04177704 27.9420166 14.84910583 C28.28341675 15.67233841 28.62481689 16.49557098 28.9765625 17.34375 C29.34390503 18.22309708 29.71124756 19.10244415 30.08972168 20.00843811 C31.27091024 22.83781595 32.44810961 25.66883194 33.625 28.5 C34.43452659 30.44271301 35.24426033 32.38533971 36.05419922 34.32788086 C37.25728787 37.21390304 38.46000332 40.10007729 39.66140747 42.98680115 C41.89844445 48.36187209 44.14505664 53.73270613 46.40625 59.09765625 C47.11273682 60.77794922 47.11273682 60.77794922 47.83349609 62.4921875 C48.6724829 64.48672401 49.51382177 66.48027337 50.35791016 68.47265625 C50.71675293 69.32859375 51.0755957 70.18453125 51.4453125 71.06640625 C51.90188232 72.1483728 51.90188232 72.1483728 52.36767578 73.25219727 C53 75 53 75 53 77 C45.74 77 38.48 77 31 77 C27 68 27 68 26 64 C10.16 64.495 10.16 64.495 -6 65 C-8.475 70.94 -8.475 70.94 -11 77 C-17.93 77 -24.86 77 -32 77 C-31.22352334 73.11761671 -30.42411903 70.32037163 -28.90209961 66.76098633 C-28.46751938 65.73834183 -28.03293915 64.71569733 -27.58518982 63.6620636 C-27.11235062 62.56315292 -26.63951141 61.46424225 -26.15234375 60.33203125 C-25.66222305 59.18320969 -25.17210236 58.03438812 -24.66712952 56.85075378 C-23.62608324 54.41294781 -22.58331707 51.97597387 -21.53735352 49.5402832 C-19.96278009 45.87359154 -18.39614905 42.20353493 -16.83007812 38.53320312 C-11.32189459 25.64199642 -5.73245196 12.79307106 0 0 Z M9 24 C4.545 35.88 4.545 35.88 0 48 C6.27 48 12.54 48 19 48 C18.32020672 43.92124031 17.83062183 41.13865115 16.37109375 37.4765625 C16.05849609 36.68378906 15.74589844 35.89101562 15.42382812 35.07421875 C15.09833984 34.26597656 14.77285156 33.45773438 14.4375 32.625 C14.10814453 31.79355469 13.77878906 30.96210938 13.43945312 30.10546875 C12.63155238 28.06815382 11.8182989 26.03315558 11 24 C10.34 24 9.68 24 9 24 Z " fill="#38B549" transform="translate(439,132)"/>
<path d="M0 0 C-1.75990784 5.91969002 -4.39694605 11.41634992 -7 17 C-11.01247032 16.34732461 -14.4446509 15.06825833 -18.1875 13.5 C-27.59441569 9.74157727 -27.59441569 9.74157727 -37.27734375 10.99609375 C-37.84582031 11.32738281 -38.41429687 11.65867188 -39 12 C-39.12815365 14.3852733 -39.12815365 14.3852733 -38 17 C-32.38902375 20.77139915 -25.55396279 22.64667041 -19.1796875 24.7109375 C-11.83074019 27.18721322 -6.60365818 30.60603031 -2 37 C0.71086551 42.93808637 0.88408019 48.91637896 -1.125 55.0625 C-3.7724936 61.30126964 -7.42776378 65.54139528 -13.625 68.375 C-25.1757666 73.03583565 -39.46182426 72.44699409 -51.05078125 68.27734375 C-63.84171322 62.73743017 -63.84171322 62.73743017 -67 58 C-64.36 53.05 -61.72 48.1 -59 43 C-54.19781589 44.92087364 -49.6670503 47.15026692 -45.08398438 49.52148438 C-40.3519644 51.93097779 -36.78179013 53.14308832 -31.5 53.125 C-30.7471875 53.12757813 -29.994375 53.13015625 -29.21875 53.1328125 C-27.026465 53.00158417 -25.10680863 52.60331338 -23 52 C-22.49830585 49.16926564 -22.49830585 49.16926564 -23 46 C-27.89366926 41.89771619 -33.46728699 40.34262782 -39.5 38.5 C-49.04988113 35.5830907 -56.05478506 32.90412615 -61.25 23.8125 C-63.10176193 16.86839277 -62.55293238 10.46596735 -59.328125 4.0390625 C-55.19434713 -2.30750235 -48.99825633 -5.75261666 -41.76171875 -7.55859375 C-26.71636269 -9.96329705 -13.45825546 -6.7026351 0 0 Z " fill="#38B449" transform="translate(406,139)"/>
<path d="M0 0 C2.21717015 3.32575522 2.24543438 4.3360624 2.22705078 8.20581055 C2.22689972 9.26668381 2.22674866 10.32755707 2.22659302 11.420578 C2.21627045 12.56440445 2.20594788 13.7082309 2.1953125 14.88671875 C2.1924826 16.05886429 2.18965271 17.23100983 2.18673706 18.43867493 C2.17552753 22.18838643 2.15042128 25.93786049 2.125 29.6875 C2.11497121 32.2272101 2.10584519 34.76692393 2.09765625 37.30664062 C2.07558567 43.53784165 2.04210039 49.76890386 2 56 C-4.79169274 54.68087673 -4.79169274 54.68087673 -7 53 C-7.6875 50.13671875 -7.6875 50.13671875 -8 46.6875 C-8.47138766 41.51991281 -9.24278198 38.6854656 -13 35 C-18.85544094 32.00498312 -25.2581334 32.66505982 -31.66455078 32.68432617 C-33.86151004 32.68748063 -36.05711369 32.66402137 -38.25390625 32.63867188 C-39.66666499 32.63639785 -41.0794273 32.63569586 -42.4921875 32.63671875 C-43.76433105 32.63373779 -45.03647461 32.63075684 -46.34716797 32.62768555 C-51.49250268 33.15212315 -55.48224976 34.22655548 -58.91870117 38.24194336 C-60.27225276 41.69443201 -60.33646388 44.42198412 -60.30078125 48.12890625 C-60.30841879 49.50716628 -60.31690789 50.88542181 -60.32617188 52.26367188 C-60.32395735 54.41889457 -60.31236349 56.57321664 -60.28491211 58.72827148 C-60.26418657 60.82107409 -60.28021035 62.91115892 -60.30078125 65.00390625 C-60.29216064 66.24986572 -60.28354004 67.4958252 -60.2746582 68.77954102 C-61 72 -61 72 -63.79370117 74.43725586 C-67 76 -67 76 -71 76 C-71.07617191 68.8467492 -71.12865121 61.69360333 -71.16479492 54.54003906 C-71.17986534 52.10738211 -71.20032523 49.67475226 -71.22631836 47.2421875 C-71.2627774 43.74211939 -71.2797442 40.2424111 -71.29296875 36.7421875 C-71.30845261 35.65759247 -71.32393646 34.57299744 -71.33988953 33.45553589 C-71.34152916 26.07040498 -70.47792418 21.87266613 -65.54638672 16.15551758 C-61.03976481 12.70040621 -55.6801603 13.38270154 -50.2578125 13.51171875 C-48.57254959 13.52233086 -48.57254959 13.52233086 -46.85324097 13.53315735 C-43.27647396 13.56107193 -39.70129124 13.62380933 -36.125 13.6875 C-33.69533516 13.71258647 -31.2656457 13.73539902 -28.8359375 13.75585938 C-22.89008747 13.81088908 -16.94515694 13.8944876 -11 14 C-11.04640625 13.16855469 -11.0928125 12.33710937 -11.140625 11.48046875 C-11.19476563 9.85044922 -11.19476563 9.85044922 -11.25 8.1875 C-11.29640625 7.10855469 -11.3428125 6.02960938 -11.390625 4.91796875 C-11 2 -11 2 -9.2109375 0.10546875 C-5.87053234 -1.56473383 -3.53481 -0.91643222 0 0 Z " fill="#D7E2D1" transform="translate(189,101)"/>
<path d="M0 0 C5.19644079 1.59890486 10.06612142 3.74138003 15 6 C15 6.66 15 7.32 15 8 C15.61746094 8.15855469 16.23492187 8.31710938 16.87109375 8.48046875 C23.14189933 10.20804228 28.45558674 12.61174745 34 16 C28.14222047 26.23716708 17.59700686 32.24970769 6.5625 35.5 C-10.85439552 39.9416168 -28.55804431 38.47986585 -46 35 C-46.82967285 34.84241211 -47.6593457 34.68482422 -48.51416016 34.52246094 C-49.33062012 34.3577832 -50.14708008 34.19310547 -50.98828125 34.0234375 C-51.73247314 33.87567871 -52.47666504 33.72791992 -53.2434082 33.57568359 C-53.8230835 33.38570801 -54.40275879 33.19573242 -55 33 C-55.33 32.34 -55.66 31.68 -56 31 C-55.27554688 30.97421875 -54.55109375 30.9484375 -53.8046875 30.921875 C-43.21374578 30.30053975 -37.96417504 25.67887559 -31 18 C-30.67 17.34 -30.34 16.68 -30 16 C-27 17 -27 17 -25.0625 19.5 C-22.87873145 22.14699218 -22.29726955 22.67710355 -19 23 C-10.68917173 17.24634966 -5.42741353 8.36726253 0 0 Z " fill="#ED1C24" transform="translate(167,146)"/>
<path d="M0 0 C3.72070823 1.24023608 4.62521091 2.95730148 7 6 C7.99 6.66 8.98 7.32 10 8 C10 8.66 10 9.32 10 10 C-10.03395198 20.5234523 -10.03395198 20.5234523 -22 18 C-24.296875 16.953125 -24.296875 16.953125 -26 16 C-26 15.67 -26 15.34 -26 15 C-25.27554688 14.97421875 -24.55109375 14.9484375 -23.8046875 14.921875 C-13.21374578 14.30053975 -7.96417504 9.67887559 -1 2 C-0.67 1.34 -0.34 0.68 0 0 Z " fill="#A14C43" transform="translate(137,162)"/>
</svg>
